if (_typeface_js && _typeface_js.loadFace) _typeface_js.loadFace({"glyphs":{"S":{"x_min":64.625,"x_max":591.234375,"ha":652,"o":"m 333 937 q 550 882 448 937 l 550 837 q 443 883 495 868 q 332 898 390 898 q 231 876 277 898 q 156 813 184 854 q 128 715 128 771 q 156 620 128 658 q 226 557 185 581 q 329 510 268 534 q 462 450 408 480 q 553 369 515 421 q 591 240 591 318 q 553 106 591 163 q 451 18 515 49 q 311 -11 387 -11 q 184 6 244 -11 q 64 59 124 24 l 64 107 q 312 27 185 27 q 427 53 374 27 q 513 126 481 79 q 544 237 544 174 q 511 347 544 302 q 430 418 477 392 q 314 470 383 443 q 196 523 244 496 q 115 596 148 549 q 81 712 81 643 q 115 833 81 783 q 206 910 149 884 q 333 937 264 937 "},"F":{"x_min":127.3125,"x_max":629.8125,"ha":647,"o":"m 571 489 l 571 451 l 173 451 l 173 0 l 127 0 l 127 925 l 629 925 l 629 887 l 173 887 l 173 489 l 571 489 "},"T":{"x_min":42.4375,"x_max":765.8125,"ha":809,"o":"m 380 0 l 380 887 l 42 887 l 42 925 l 765 925 l 765 887 l 427 887 l 427 0 l 380 0 "},"N":{"x_min":126.34375,"x_max":866.125,"ha":994,"o":"m 171 0 l 126 0 l 126 925 l 179 925 l 820 66 l 820 925 l 866 925 l 866 0 l 813 0 l 171 860 l 171 0 "},"K":{"x_min":127.3125,"x_max":707.9375,"ha":726,"o":"m 173 925 l 173 0 l 127 0 l 127 925 l 173 925 m 185 491 l 590 925 l 650 925 l 242 492 l 707 0 l 647 0 l 185 491 "},"Y":{"x_min":41.46875,"x_max":782.21875,"ha":825,"o":"m 388 457 l 41 925 l 99 925 l 412 500 l 726 925 l 782 925 l 434 457 l 434 0 l 388 0 l 388 457 "},"E":{"x_min":127.3125,"x_max":629.8125,"ha":679,"o":"m 571 490 l 571 453 l 173 453 l 173 38 l 629 38 l 629 0 l 127 0 l 127 925 l 629 925 l 629 887 l 173 887 l 173 490 l 571 490 "},"V":{"x_min":83.90625,"x_max":850.6875,"ha":936,"o":"m 133 925 l 466 59 l 801 925 l 850 925 l 491 0 l 442 0 l 83 925 l 133 925 "},"Z":{"x_min":45.328125,"x_max":767.75,"ha":814,"o":"m 767 0 l 45 0 l 45 38 l 709 887 l 45 887 l 45 925 l 767 925 l 767 887 l 105 38 l 767 38 l 767 0 "},"Q":{"x_min":42.4375,"x_max":997.296875,"ha":1042,"o":"m 997 462 q 958 273 997 362 q 848 118 919 185 l 997 0 l 940 0 l 821 95 q 681 16 759 44 q 519 -11 604 -11 q 280 52 389 -11 q 106 224 170 115 q 42 462 42 333 q 106 701 42 592 q 280 873 170 810 q 519 937 389 937 q 759 873 650 937 q 933 701 869 810 q 997 462 997 592 m 519 29 q 663 54 595 29 q 787 123 731 78 l 508 347 l 564 347 l 814 147 q 913 289 877 208 q 949 462 949 371 q 891 679 949 580 q 734 837 833 779 q 519 896 636 896 q 304 837 403 896 q 148 679 206 779 q 90 462 90 580 q 148 245 90 345 q 304 88 206 146 q 519 29 403 29 "},"M":{"x_min":127.3125,"x_max":982.828125,"ha":1112,"o":"m 571 336 l 537 336 l 172 858 l 172 0 l 127 0 l 127 925 l 181 925 l 554 390 l 927 925 l 982 925 l 982 0 l 936 0 l 936 860 l 571 336 "},"C":{"x_min":42.4375,"x_max":873.84375,"ha":920,"o":"m 517 937 q 715 896 624 937 q 873 782 807 855 l 873 721 q 718 849 810 802 q 521 896 625 896 q 305 837 405 896 q 148 679 206 779 q 90 462 90 580 q 148 245 90 345 q 305 88 206 146 q 521 29 405 29 q 718 76 625 29 q 873 203 810 123 l 873 143 q 715 29 807 70 q 517 -11 624 -11 q 279 52 388 -11 q 106 224 169 115 q 42 462 42 333 q 106 701 42 592 q 279 873 169 810 q 517 937 388 937 "},"L":{"x_min":153.359375,"x_max":655.859375,"ha":699,"o":"m 153 0 l 153 925 l 199 925 l 199 41 l 655 41 l 655 0 l 153 0 "},"A":{"x_min":83.90625,"x_max":850.6875,"ha":936,"o":"m 442 925 l 491 925 l 850 0 l 804 0 l 676 332 l 258 332 l 130 0 l 83 0 l 442 925 m 466 876 l 272 371 l 661 371 l 466 876 "},"J":{"x_min":4.828125,"x_max":461.03125,"ha":589,"o":"m 461 256 q 426 113 461 174 q 331 20 391 53 q 195 -11 271 -11 q 91 8 140 -11 q 4 64 42 28 l 4 122 q 88 56 39 81 q 190 31 136 31 q 303 59 252 31 q 384 138 354 86 q 414 259 414 190 l 414 925 l 461 925 l 461 256 "},"O":{"x_min":42.4375,"x_max":997.296875,"ha":1042,"o":"m 519 937 q 759 873 649 937 q 933 701 869 810 q 997 462 997 592 q 933 224 997 333 q 759 52 869 115 q 519 -11 649 -11 q 280 52 390 -11 q 106 224 170 115 q 42 462 42 333 q 106 701 42 592 q 280 873 170 810 q 519 937 390 937 m 519 896 q 304 837 403 896 q 148 679 206 779 q 90 462 90 580 q 148 245 90 345 q 304 88 206 146 q 519 29 403 29 q 734 88 636 29 q 891 245 833 146 q 949 462 949 345 q 891 679 949 580 q 734 837 833 779 q 519 896 636 896 "},"W":{"x_min":91.625,"x_max":1295.328125,"ha":1389,"o":"m 427 0 l 380 0 l 91 925 l 137 925 l 404 68 l 670 925 l 716 925 l 982 68 l 1249 925 l 1295 925 l 1005 0 l 959 0 l 693 857 l 427 0 "}," ":{"x_min":0,"x_max":0,"ha":553},"X":{"x_min":41.46875,"x_max":788,"ha":830,"o":"m 414 446 l 98 0 l 41 0 l 385 483 l 70 925 l 128 925 l 414 519 l 702 925 l 759 925 l 443 483 l 788 0 l 730 0 l 414 446 "},"P":{"x_min":127.3125,"x_max":639.46875,"ha":710,"o":"m 391 925 q 516 892 459 925 q 606 802 572 859 q 639 679 639 746 q 606 556 639 613 q 516 466 572 499 q 391 433 459 433 l 173 433 l 173 0 l 127 0 l 127 925 l 391 925 m 388 471 q 491 499 444 471 q 566 575 539 527 q 594 679 594 623 q 566 783 594 735 q 491 859 539 831 q 388 887 444 887 l 173 887 l 173 471 l 388 471 "},"B":{"x_min":127.3125,"x_max":668.40625,"ha":716,"o":"m 378 925 q 495 896 441 925 q 579 814 548 866 q 610 701 610 762 q 572 577 610 632 q 472 495 534 521 q 573 448 528 483 q 643 362 618 413 q 668 252 668 311 q 633 125 668 183 q 539 33 598 67 q 407 0 480 0 l 127 0 l 127 925 l 378 925 m 374 508 q 469 533 426 508 q 538 603 513 559 q 564 698 564 647 q 538 793 564 749 q 469 863 513 837 q 374 889 425 889 l 173 889 l 173 508 l 374 508 m 404 36 q 514 66 463 36 q 593 146 564 96 q 622 255 622 196 q 593 364 622 314 q 514 443 564 413 q 404 472 463 472 l 173 472 l 173 36 l 404 36 "},"H":{"x_min":127.3125,"x_max":860.34375,"ha":989,"o":"m 174 451 l 174 0 l 127 0 l 127 925 l 174 925 l 174 492 l 813 492 l 813 925 l 860 925 l 860 0 l 813 0 l 813 451 l 174 451 "},"D":{"x_min":127.3125,"x_max":940.390625,"ha":985,"o":"m 473 925 q 707 864 599 925 q 877 695 815 802 q 940 462 940 589 q 877 230 940 336 q 707 61 815 123 q 473 0 599 0 l 127 0 l 127 925 l 473 925 m 473 40 q 683 97 587 40 q 835 251 779 154 q 892 462 892 348 q 835 674 892 577 q 683 827 779 770 q 473 883 587 883 l 173 883 l 173 40 l 473 40 "},"R":{"x_min":142.75,"x_max":713.734375,"ha":768,"o":"m 407 925 q 531 892 474 925 q 621 802 588 859 q 654 679 654 746 q 626 566 654 619 q 548 479 597 513 q 440 439 499 445 l 713 0 l 660 0 l 392 433 l 189 433 l 189 0 l 142 0 l 142 925 l 407 925 m 404 471 q 507 499 460 471 q 582 575 554 527 q 609 679 609 623 q 582 783 609 735 q 507 859 554 831 q 404 887 460 887 l 189 887 l 189 471 l 404 471 "},"I":{"x_min":128.28125,"x_max":174.578125,"ha":305,"o":"m 174 925 l 174 0 l 128 0 l 128 925 l 174 925 "},"G":{"x_min":42.4375,"x_max":877.703125,"ha":979,"o":"m 522 937 q 718 896 625 937 q 877 782 811 855 l 877 725 q 721 850 814 804 q 523 896 628 896 q 305 837 405 896 q 148 679 206 779 q 90 462 90 580 q 148 244 90 344 q 305 86 206 144 q 522 27 405 27 q 696 66 614 27 q 838 170 779 104 l 837 432 l 519 432 l 519 469 l 877 469 l 877 145 q 717 29 810 71 q 520 -11 625 -11 q 280 52 390 -11 q 106 224 170 115 q 42 462 42 333 q 106 701 42 592 q 280 873 169 810 q 522 937 390 937 "},"U":{"x_min":100.296875,"x_max":829.46875,"ha":930,"o":"m 829 352 q 780 168 829 251 q 647 36 731 84 q 464 -11 564 -11 q 281 36 364 -11 q 149 168 197 84 q 100 352 100 251 l 100 925 l 147 925 l 147 352 q 190 190 147 263 q 304 73 232 116 q 464 30 377 30 q 624 73 551 30 q 739 190 697 116 q 782 352 782 264 l 782 925 l 829 925 l 829 352 "}}}
